<svg version="1.1" id="Layer_1" xmlns="http://www.w3.org/2000/svg" xmlns:xlink="http://www.w3.org/1999/xlink" x="0px" y="0px"
	 width="100%" viewBox="0 0 460 460" enable-background="new 0 0 460 460" xml:space="preserve">
<path fill="#000000" opacity="0.000000" stroke="none" 
	d="
M210.000000,461.000000 
	C140.018875,461.000000 70.537766,461.000000 1.028322,461.000000 
	C1.028322,307.727203 1.028322,154.454407 1.028322,1.090808 
	C154.231094,1.090808 307.462250,1.090808 460.846710,1.090808 
	C460.846710,154.333221 460.846710,307.666595 460.846710,461.000000 
	C377.454468,461.000000 293.977234,461.000000 210.000000,461.000000 
M101.743996,212.246689 
	C101.434303,219.086029 101.124611,225.925354 100.777855,233.583221 
	C174.016495,203.494614 246.096222,173.882126 318.154816,144.278320 
	C317.854492,143.425812 317.829620,143.042038 317.626709,142.823624 
	C297.263885,120.900940 272.444580,107.220276 242.728577,103.046196 
	C212.271988,98.768082 183.980637,104.915359 158.117310,121.733391 
	C125.533432,142.921570 107.196793,173.073288 101.743996,212.246689 
M310.833282,277.502838 
	C291.070435,278.250549 271.310638,279.093231 251.544083,279.725311 
	C215.319580,280.883636 179.090515,281.899078 142.864700,283.017212 
	C134.303192,283.281464 125.718559,283.600983 118.318642,288.862152 
	C139.277161,326.918732 187.635025,357.686310 245.295563,348.849152 
	C290.989532,341.845978 327.548889,306.775848 337.606506,277.502014 
	C329.049286,277.502014 320.416168,277.502014 310.833282,277.502838 
M242.482635,261.498749 
	C272.948578,260.999451 303.413910,260.454254 333.880829,260.025360 
	C344.756561,259.872223 345.117004,260.072815 347.241882,249.492752 
	C350.581146,232.866150 350.159637,216.198547 346.549896,198.968109 
	C293.355469,219.839996 240.625244,240.529739 187.182831,261.498932 
	C205.930725,261.498932 223.706146,261.498932 242.482635,261.498749 
z"/>
<path fill="#55FE55" opacity="1.000000" stroke="none" 
	d="
M101.755203,211.793091 
	C107.196793,173.073288 125.533432,142.921570 158.117310,121.733391 
	C183.980637,104.915359 212.271988,98.768082 242.728577,103.046196 
	C272.444580,107.220276 297.263885,120.900940 317.626709,142.823624 
	C317.829620,143.042038 317.854492,143.425812 318.154816,144.278320 
	C246.096222,173.882126 174.016495,203.494614 100.777855,233.583221 
	C101.124611,225.925354 101.434303,219.086029 101.755203,211.793091 
z"/>
<path fill="#55FE55" opacity="1.000000" stroke="none" 
	d="
M311.308167,277.502441 
	C320.416168,277.502014 329.049286,277.502014 337.606506,277.502014 
	C327.548889,306.775848 290.989532,341.845978 245.295563,348.849152 
	C187.635025,357.686310 139.277161,326.918732 118.318642,288.862152 
	C125.718559,283.600983 134.303192,283.281464 142.864700,283.017212 
	C179.090515,281.899078 215.319580,280.883636 251.544083,279.725311 
	C271.310638,279.093231 291.070435,278.250549 311.308167,277.502441 
z"/>
<path fill="#55FE55" opacity="1.000000" stroke="none" 
	d="
M241.982101,261.498840 
	C223.706146,261.498932 205.930725,261.498932 187.182831,261.498932 
	C240.625244,240.529739 293.355469,219.839996 346.549896,198.968109 
	C350.159637,216.198547 350.581146,232.866150 347.241882,249.492752 
	C345.117004,260.072815 344.756561,259.872223 333.880829,260.025360 
	C303.413910,260.454254 272.948578,260.999451 241.982101,261.498840 
z"/>
</svg>